<svg width="69" height="69" viewBox="0 0 69 69" fill="none" xmlns="http://www.w3.org/2000/svg">
<g clip-path="url(#clip0_1541_652)">
<path d="M17.2113 36.8777C18.5691 36.8777 19.6698 35.777 19.6698 34.4191C19.6698 33.0613 18.5691 31.9606 17.2113 31.9606C15.8534 31.9606 14.7527 33.0613 14.7527 34.4191C14.7527 35.777 15.8534 36.8777 17.2113 36.8777Z" stroke="white" stroke-width="4.91715" stroke-linecap="round" stroke-linejoin="round"/>
<path d="M33.1922 36.8777C34.55 36.8777 35.6508 35.777 35.6508 34.4191C35.6508 33.0613 34.55 31.9606 33.1922 31.9606C31.8344 31.9606 30.7336 33.0613 30.7336 34.4191C30.7336 35.777 31.8344 36.8777 33.1922 36.8777Z" stroke="white" stroke-width="4.91715" stroke-linecap="round" stroke-linejoin="round"/>
<path d="M49.1732 36.8777C50.531 36.8777 51.6317 35.777 51.6317 34.4191C51.6317 33.0613 50.531 31.9606 49.1732 31.9606C47.8153 31.9606 46.7146 33.0613 46.7146 34.4191C46.7146 35.777 47.8153 36.8777 49.1732 36.8777Z" stroke="white" stroke-width="4.91715" stroke-linecap="round" stroke-linejoin="round"/>
<path d="M34.4218 2.45685C28.6404 2.45865 22.9678 4.02856 18.0081 6.99938C13.0484 9.97019 8.98733 14.2307 6.25752 19.327C3.52771 24.4233 2.23134 30.1646 2.5065 35.9395C2.78165 41.7143 4.61802 47.3064 7.82002 52.1201L2.46033 66.3798L20.4079 63.1345C24.7296 65.2464 29.4723 66.3556 34.2824 66.3794C39.0924 66.4032 43.8459 65.341 48.1883 63.272C52.5307 61.2031 56.3501 58.1806 59.3619 54.43C62.3736 50.6794 64.4999 46.2974 65.5823 41.6107C66.6648 36.9239 66.6754 32.0533 65.6134 27.3619C64.5514 22.6704 62.4442 18.2792 59.4489 14.5155C56.4536 10.7518 52.6474 7.71273 48.314 5.62482C43.9807 3.53691 39.2319 2.45401 34.4218 2.45685V2.45685Z" stroke="white" stroke-width="4.91715" stroke-linecap="round" stroke-linejoin="round"/>
</g>
<defs>
<clipPath id="clip0_1541_652">
<rect width="68.8401" height="68.8401" fill="white"/>
</clipPath>
</defs>
</svg>
